# xmcd CD database file
#
# Track frame offsets:
#	150
#	24738
#	47433
#	73770
#	99111
#	120137
#	140384
#	168308
#
# Disc length: 2575 seconds
#
# Revision: 0
# Processed by: cddbd v1.5.1PL0 Copyright (c) Steve Scherf et al.
# Submitted via: CDex 1.51
#
DISCID=5b0a0d08
DTITLE=Maelo Ruiz - Sólo
DYEAR=1994
DGENRE=Salsa
TTITLE0=Te Necesito Mi Amor
TTITLE1=Igual Qye Ayer
TTITLE2=Mi Mundo Es De Ella
TTITLE3=Nadie Igual Que Tú
TTITLE4=Vuelve A Ser Mía Otra Vez
TTITLE5=Apasionadamente
TTITLE6=Contra Viento Y Marea
TTITLE7=No Es Igual Sin Ti
EXTD=YEAR: 1994
EXTT0=
EXTT1=
EXTT2=
EXTT3=
EXTT4=
EXTT5=
EXTT6=
EXTT7=
PLAYORDER=
